<?xml version="1.0" standalone="no"?>
<!DOCTYPE svg PUBLIC "-//W3C//DTD SVG 20010904//EN"
 "http://www.w3.org/TR/2001/REC-SVG-20010904/DTD/svg10.dtd">
<svg version="1.0" xmlns="http://www.w3.org/2000/svg"
 width="146.000000pt" height="146.000000pt" viewBox="0 0 146.000000 146.000000"
 preserveAspectRatio="xMidYMid meet">
<metadata>
Created by potrace 1.14, written by Peter Selinger 2001-2017
</metadata>
<g transform="translate(0.000000,146.000000) scale(0.100000,-0.100000)"
fill="#000000" stroke="none">
<path d="M552 1195 c-29 -24 -50 -66 -46 -92 1 -7 2 -21 3 -31 0 -10 10 -28
21 -40 11 -12 20 -25 20 -29 0 -4 -26 -33 -57 -65 l-57 -58 -24 23 c-18 17
-35 22 -79 22 -49 0 -58 -3 -84 -33 -37 -41 -41 -114 -8 -156 l20 -26 -20 -26
c-15 -19 -21 -41 -21 -79 0 -48 3 -56 35 -84 47 -41 99 -45 147 -10 15 10 31
19 35 19 5 0 33 -24 62 -54 l54 -54 -21 -29 c-42 -59 -29 -143 27 -176 40 -24
106 -22 142 4 l29 20 26 -20 c33 -26 109 -28 142 -5 54 37 66 110 28 166 -26
39 -27 38 51 112 l41 38 29 -20 c27 -19 54 -25 100 -23 12 1 38 17 58 36 29
29 35 43 35 76 0 39 -26 99 -42 99 -4 0 4 16 17 36 58 86 5 194 -95 194 -35 0
-69 -15 -86 -38 -9 -13 -21 -5 -73 47 l-61 61 20 22 c40 43 38 116 -3 164 -18
21 -35 28 -75 32 -45 4 -56 1 -86 -22 -28 -21 -37 -23 -43 -13 -25 44 -116 50
-161 12z m121 -29 c9 -7 17 -17 17 -22 0 -6 -24 -34 -54 -63 l-54 -53 -16 23
c-37 54 -3 129 58 129 17 0 39 -7 49 -14z m212 -11 c30 -30 32 -64 4 -99 l-20
-26 -56 57 -56 56 23 19 c32 26 76 23 105 -7z m-100 -98 l54 -54 -57 -57 -56
-56 -55 55 -56 55 55 55 c30 30 56 55 57 55 2 0 28 -24 58 -53z m-128 -157
c18 -19 33 -37 33 -40 0 -3 -25 -32 -56 -64 l-57 -58 -56 56 -56 56 60 60 c66
67 58 68 132 -10z m306 -21 l28 -27 -56 -56 c-31 -31 -58 -56 -59 -56 -1 0
-28 27 -60 59 l-59 59 57 56 57 55 32 -32 c18 -17 45 -44 60 -58z m-582 -8
l24 -20 -55 -55 c-53 -54 -55 -56 -73 -38 -29 29 -25 81 7 109 33 28 66 29 97
4z m794 -6 c30 -29 33 -73 7 -105 l-18 -22 -57 54 -56 55 20 22 c27 29 73 27
104 -4z m-370 -114 l43 -45 -60 -59 -60 -59 -59 58 c-32 31 -55 62 -52 68 4 5
30 33 57 62 58 58 50 59 131 -25z m-267 -43 c-2 -4 -25 -30 -52 -58 l-49 -51
-56 55 -56 56 55 55 54 55 53 -52 c29 -29 52 -56 51 -60z m536 -54 l-57 -56
-55 56 -56 55 58 56 58 55 55 -55 54 -56 -57 -55z m-689 -104 c-24 -26 -75
-26 -103 0 -12 12 -22 24 -23 28 0 4 -2 14 -4 24 -2 9 6 31 17 49 l20 32 56
-56 c55 -55 56 -56 37 -77z m255 65 l54 -54 -20 -22 c-10 -13 -35 -38 -54 -56
l-34 -33 -60 59 -59 60 49 49 c27 28 54 51 59 51 6 1 35 -24 65 -54z m299 3
l51 -53 -61 -59 -61 -58 -55 54 -55 55 54 56 c29 31 58 56 64 57 6 0 34 -24
63 -52z m249 27 c17 -37 15 -59 -9 -89 -25 -31 -75 -35 -108 -8 l-21 17 50 53
c28 28 56 52 64 52 7 0 18 -11 24 -25z m-400 -178 l52 -53 -55 -54 -55 -55
-57 57 -56 56 52 51 c28 28 55 51 59 51 4 0 31 -24 60 -53z m-146 -134 c26
-26 48 -53 48 -61 0 -16 -58 -42 -79 -34 -53 18 -76 78 -49 122 18 29 27 26
80 -27z m252 25 c22 -31 20 -62 -6 -93 -28 -32 -79 -37 -108 -10 -21 19 -20
19 32 72 29 29 56 53 60 53 4 0 14 -10 22 -22z"/>
</g>
</svg>
